Simulation
nRows=31
nColumns=15
endheader
time  TH_x TH_y TH_z SC_y  SC_z  SC_x  AC_y  AC_z  AC_x  GH_y  GH_z  GH_yy  EL_x  PS_y
7.203000000000001  0.000000  0.000000  0.000000  -28.25911116602264  7.468818176466738  -2.1412453214578395  53.7021320354189  8.622787688161816  4.797283000798888  55.503061216510154  15.317174958380916  5.065281094148443  13.19511021746072  120.000000
7.251020000000001  0.000000  0.000000  0.000000  -28.15423842252997  7.186447824264325  -3.5484507865060717  53.726194289224935  9.536090227498688  5.446199433591526  52.89486064079773  18.64221761743557  6.037013859295957  12.601658607690396  120.000000
7.2990400000000015  0.000000  0.000000  0.000000  -28.251038707486977  7.085940170532511  -4.736597421780477  53.88560712886571  10.610587255133254  6.21287550013998  51.31510748067958  22.149708998810247  5.750525889295611  12.111158869090488  120.000000
7.347060000000001  0.000000  0.000000  0.000000  -28.50974853253209  7.1593714454112325  -5.668903761718116  54.17368445231608  11.812700017389977  7.087549053174938  50.35679058042733  25.757023560811586  4.657269070599542  11.712879340167518  120.000000
7.395080000000001  0.000000  0.000000  0.000000  -28.869237999456814  7.38267032683975  -6.310829466006596  54.5530167104471  13.112615841462786  8.06857245920673  49.77429528275458  29.352632985028404  3.0563916604021424  11.391154471449461  120.000000
7.443100000000001  0.000000  0.000000  0.000000  -29.26149813166931  7.740886457733518  -6.639078546361345  54.98936342551193  14.492988348222108  9.132790848866998  49.41123804607533  32.83438568201664  1.1460707950473557  11.128396050516695  120.000000
7.491120000000001  0.000000  0.000000  0.000000  -29.63963432227338  8.225198944646326  -6.642938633164182  55.4570673631594  15.932855032728861  10.239648220628514  49.15943972473037  36.126882061919105  -0.9385348819704393  10.910482234085254  120.000000
7.5391400000000015  0.000000  0.000000  0.000000  -29.995061948872625  8.810278828010265  -6.322924759127726  55.9165747142832  17.38813772809329  11.361885048341406  48.94260101780376  39.17378156356035  -3.100780841580676  10.729354877404672  120.000000
7.587160000000001  0.000000  0.000000  0.000000  -30.343316168394843  9.46298725443197  -5.690189966795219  56.3295914544234  18.801648187549528  12.480865477261942  48.71314903736907  41.94137017937622  -5.272687269676257  10.580312763093325  120.000000
7.635180000000001  0.000000  0.000000  0.000000  -30.711840389862687  10.152623322026336  -4.764812022569281  56.66822772580594  20.116925783062825  13.57913604635881  48.443579285247274  44.41622313823027  -7.402014809642548  10.46082969498163  120.000000
7.683200000000001  0.000000  0.000000  0.000000  -31.12894503288157  10.848883472994972  -3.574560617457166  56.91033899390024  21.283816025665725  14.643516785939742  48.120354015059405  46.596572364077694  -9.447678490120314  10.368714505440494  120.000000
7.731220000000001  0.000000  0.000000  0.000000  -31.614359884471458  11.525739240585521  -2.158538674664308  57.045507051229535  22.26503314268565  15.660563186878763  47.74370798662533  48.49016544260819  -11.38270069582278  10.302861514000272  120.000000
7.7792400000000015  0.000000  0.000000  0.000000  -32.17372091864785  12.159747332634169  -0.5667934369177956  57.07466312987556  23.037903707391923  16.618481977342213  47.32411867177643  50.110981515596606  -13.194432364284248  10.26345122748951  120.000000
7.827260000000001  0.000000  0.000000  0.000000  -32.8000290304826  12.734388680801489  1.1434495784392003  57.0121354811727  23.59691315485749  17.503652644019898  46.8781307759858  51.47837912506906  -14.881035171167921  10.251110564061662  120.000000
7.875280000000001  0.000000  0.000000  0.000000  -33.47804598437495  13.23887298452808  2.913670614045655  56.880217131803775  23.950956129651498  18.302895650880384  46.42340629460703  52.61668191322216  -16.443628452025497  10.264471288083394  120.000000
7.923300000000001  0.000000  0.000000  0.000000  -34.18908778897915  13.66868023403206  4.692173324689432  56.704817848253676  24.12154231142479  19.003642374058376  45.977593596656476  53.55492363944963  -17.87942196967583  10.298433947754008  120.000000
7.971320000000001  0.000000  0.000000  0.000000  -34.915348205787076  14.023947422902229  6.437841309458178  56.509805603565  24.13841600943033  19.595932754473978  45.55495550535848  54.32642745322876  -19.176046186700212  10.343015851182578  120.000000
8.019340000000001  0.000000  0.000000  0.000000  -35.64090976757158  14.307055972109081  8.119469590876031  56.31212348299693  24.034613785840897  20.073991381802106  45.16617361508827  54.964581199243185  -20.31308671631758  10.384784047178696  120.000000
8.06736  0.000000  0.000000  0.000000  -36.34943820679031  14.521174128098016  9.711681578988458  56.12345036461454  23.841799054596155  20.435726429827337  44.820395585011106  55.50018815913937  -21.269540553531264  10.410994002071538  120.000000
8.115380000000002  0.000000  0.000000  0.000000  -37.02077628863194  14.670297618069009  11.190948693972246  55.95228332698542  23.587476025202932  20.680932041949593  44.52673889136722  55.95647662217876  -22.031768197363903  10.413690281041141  120.000000
8.163400000000001  0.000000  0.000000  0.000000  -37.62915151029941  14.75985328167058  12.53204587218507  55.80764618239944  23.29325803605962  20.808889673092033  44.29606378876944  56.3465244894849  -22.600550159569664  10.392962220037182  120.000000
8.21142  0.000000  0.000000  0.000000  -38.14315315178773  14.796064493968592  13.707868306293477  55.699865907347466  22.973444683117357  20.818495558090778  44.14252630096261  56.672219973415096  -22.99210618209603  10.356604404941654  120.000000
8.259440000000001  0.000000  0.000000  0.000000  -38.52972899832089  14.786897777620476  14.690944181389389  55.6406144000408  22.63669351172081  20.706941470710124  44.08229939839672  56.92624538718898  -23.232958059757006  10.316361946426028  120.000000
8.30746  0.000000  0.000000  0.000000  -38.75907599961675  14.740272792549847  15.455760573170213  55.63979594694816  22.286676064973797  20.472019882315095  44.13145007710768  57.09480897991561  -23.35090208702588  10.282406573969938  120.000000
8.355480000000002  0.000000  0.000000  0.000000  -38.80971782782568  14.663707648101179  15.98046198526172  55.70396659808198  21.925262793456028  20.11179380732088  44.30275089216987  57.1604570217853  -23.366837554447816  10.258416507047908  120.000000
8.403500000000001  0.000000  0.000000  0.000000  -38.67092948297695  14.561614796263868  16.247177443052944  55.83450307858623  21.55186783718625  19.62759599086674  44.604405010757425  57.10408478447158  -23.289063502470917  10.23888568267888  120.000000
8.451520000000002  0.000000  0.000000  0.000000  -38.343342585165665  14.435733284076738  16.24181476702629  56.028233064197735  21.164918550959392  19.023249571088936  45.03948743320832  56.904955109390656  -23.11272061677711  10.211195352698631  120.000000
8.499540000000001  0.000000  0.000000  0.000000  -37.83643616434905  14.284335268888409  15.953371305749329  56.27803285470571  20.76072231420201  18.306544595461464  45.60737512860649  56.53923913502657  -22.82213652928599  10.160738774688353  120.000000
8.54756  0.000000  0.000000  0.000000  -37.16771955835509  14.102349602547289  15.372981457513688  56.572119831334746  20.332664470617907  17.49013277363636  46.30416486235291  55.97851822962915  -22.394385323804563  10.079432590124622  120.000000
8.595580000000002  0.000000  0.000000  0.000000  -36.362799650146734  13.881911545998046  14.495337686906979  56.891739359228716  19.87210490646036  16.591352617539396  47.121013925923876  55.18763495596116  -21.801509755465943  9.971303732694416  120.000000
8.643600000000001  0.000000  0.000000  0.000000  -35.456484989884366  13.613045688403684  13.320340471142359  57.20864170906657  19.369979325500264  15.634027175944022  48.04237137967679  54.12593267343261  -21.0118222946353  9.855980668258569  120.000000
